<svg width="111" height="47" viewBox="0 0 111 47" fill="none" xmlns="http://www.w3.org/2000/svg">
<path d="M4.22656 0.9375V18H0.40625V0.9375H4.22656ZM14.4219 0.9375L7.74219 9.46875L3.85156 13.6875L3.16016 10.1367L5.72656 6.45703L9.73438 0.9375H14.4219ZM9.99219 18L5.28125 10.207L8.1875 7.94531L14.5156 18H9.99219ZM22.8008 4.18359L18.3945 18H14.3164L20.6328 0.9375H23.2109L22.8008 4.18359ZM26.457 18L22.0391 4.18359L21.582 0.9375H24.1953L30.5352 18H26.457ZM26.2695 11.6484V14.6016H17.375V11.6484H26.2695ZM40.8008 13.5C40.8008 13.2109 40.7578 12.9531 40.6719 12.7266C40.5859 12.4922 40.4297 12.2773 40.2031 12.082C39.9766 11.8867 39.6562 11.6914 39.2422 11.4961C38.8281 11.293 38.2852 11.0859 37.6133 10.875C36.8477 10.625 36.1172 10.3438 35.4219 10.0312C34.7344 9.71094 34.1211 9.33984 33.582 8.91797C33.043 8.49609 32.6172 8.00391 32.3047 7.44141C32 6.87891 31.8477 6.22266 31.8477 5.47266C31.8477 4.74609 32.0078 4.08984 32.3281 3.50391C32.6484 2.91797 33.0977 2.41797 33.6758 2.00391C34.2539 1.58203 34.9336 1.26172 35.7148 1.04297C36.4961 0.816406 37.3555 0.703125 38.293 0.703125C39.543 0.703125 40.6406 0.925781 41.5859 1.37109C42.5391 1.80859 43.2812 2.42578 43.8125 3.22266C44.3438 4.01172 44.6094 4.92969 44.6094 5.97656H40.8125C40.8125 5.51562 40.7148 5.10938 40.5195 4.75781C40.332 4.39844 40.043 4.11719 39.6523 3.91406C39.2695 3.71094 38.7891 3.60938 38.2109 3.60938C37.6484 3.60938 37.1758 3.69531 36.793 3.86719C36.418 4.03125 36.1328 4.25781 35.9375 4.54688C35.75 4.83594 35.6562 5.15234 35.6562 5.49609C35.6562 5.76953 35.7266 6.01953 35.8672 6.24609C36.0156 6.46484 36.2266 6.67188 36.5 6.86719C36.7812 7.05469 37.125 7.23438 37.5312 7.40625C37.9375 7.57812 38.4023 7.74219 38.9258 7.89844C39.8398 8.1875 40.6484 8.50781 41.3516 8.85938C42.0625 9.21094 42.6602 9.60938 43.1445 10.0547C43.6289 10.5 43.9922 11.0039 44.2344 11.5664C44.4844 12.1289 44.6094 12.7656 44.6094 13.4766C44.6094 14.2344 44.4609 14.9062 44.1641 15.4922C43.875 16.0781 43.4531 16.5781 42.8984 16.9922C42.3516 17.3984 41.6953 17.707 40.9297 17.918C40.1641 18.1289 39.3086 18.2344 38.3633 18.2344C37.5039 18.2344 36.6562 18.125 35.8203 17.9062C34.9844 17.6797 34.2266 17.3359 33.5469 16.875C32.875 16.4141 32.3359 15.8281 31.9297 15.1172C31.5312 14.3984 31.332 13.5469 31.332 12.5625H35.1523C35.1523 13.0781 35.2266 13.5156 35.375 13.875C35.5234 14.2266 35.7344 14.5117 36.0078 14.7305C36.2891 14.9492 36.6289 15.1055 37.0273 15.1992C37.4258 15.293 37.8711 15.3398 38.3633 15.3398C38.9336 15.3398 39.3945 15.2617 39.7461 15.1055C40.1055 14.9414 40.3711 14.7188 40.543 14.4375C40.7148 14.1562 40.8008 13.8438 40.8008 13.5ZM57.9922 15.0469V18H49.3789V15.0469H57.9922ZM50.6797 0.9375V18H46.8594V0.9375H50.6797ZM71.4688 15.0469V18H62.3867V15.0469H71.4688ZM63.6875 0.9375V18H59.8672V0.9375H63.6875ZM70.2969 7.80469V10.6641H62.3867V7.80469H70.2969ZM71.4805 0.9375V3.90234H62.3867V0.9375H71.4805ZM73.3438 0.9375H79.8945C81.1992 0.9375 82.3281 1.13281 83.2812 1.52344C84.2422 1.91406 84.9805 2.49219 85.4961 3.25781C86.0117 4.02344 86.2695 4.96875 86.2695 6.09375C86.2695 7.03125 86.1172 7.82812 85.8125 8.48438C85.5078 9.14062 85.0781 9.68359 84.5234 10.1133C83.9766 10.543 83.3359 10.8906 82.6016 11.1562L81.3594 11.8359H75.7812L75.7578 8.87109H79.9062C80.4766 8.87109 80.9492 8.76953 81.3242 8.56641C81.6992 8.36328 81.9805 8.07812 82.168 7.71094C82.3633 7.33594 82.4609 6.89844 82.4609 6.39844C82.4609 5.88281 82.3633 5.4375 82.168 5.0625C81.9727 4.6875 81.6836 4.40234 81.3008 4.20703C80.9258 4.00391 80.457 3.90234 79.8945 3.90234H77.1641V18H73.3438V0.9375ZM82.7891 18L78.957 10.418L82.9883 10.4062L86.8789 17.8242V18H82.7891ZM10.2031 28.9375V46H6.38281V28.9375H10.2031ZM16.918 36.1328V39.0859H9.13672V36.1328H16.918ZM17.668 28.9375V31.9023H9.13672V28.9375H17.668ZM30.6641 43.0469V46H22.0508V43.0469H30.6641ZM23.3516 28.9375V46H19.5312V28.9375H23.3516ZM45.9922 37.0938V37.8555C45.9922 39.1523 45.8125 40.3164 45.4531 41.3477C45.1016 42.3789 44.5977 43.2578 43.9414 43.9844C43.293 44.7109 42.5195 45.2695 41.6211 45.6602C40.7305 46.043 39.7422 46.2344 38.6562 46.2344C37.5703 46.2344 36.5781 46.043 35.6797 45.6602C34.7812 45.2695 34 44.7109 33.3359 43.9844C32.6797 43.2578 32.1719 42.3789 31.8125 41.3477C31.4531 40.3164 31.2734 39.1523 31.2734 37.8555V37.0938C31.2734 35.7969 31.4531 34.6328 31.8125 33.6016C32.1719 32.5625 32.6758 31.6797 33.3242 30.9531C33.9805 30.2266 34.7578 29.6719 35.6562 29.2891C36.5547 28.8984 37.5469 28.7031 38.6328 28.7031C39.7188 28.7031 40.7109 28.8984 41.6094 29.2891C42.5078 29.6719 43.2812 30.2266 43.9297 30.9531C44.5859 31.6797 45.0938 32.5625 45.4531 33.6016C45.8125 34.6328 45.9922 35.7969 45.9922 37.0938ZM42.1367 37.8555V37.0703C42.1367 36.2031 42.0586 35.4375 41.9023 34.7734C41.7461 34.1016 41.5195 33.5391 41.2227 33.0859C40.9258 32.6328 40.5586 32.293 40.1211 32.0664C39.6836 31.832 39.1875 31.7148 38.6328 31.7148C38.0547 31.7148 37.5508 31.832 37.1211 32.0664C36.6914 32.293 36.3281 32.6328 36.0312 33.0859C35.7422 33.5391 35.5195 34.1016 35.3633 34.7734C35.2148 35.4375 35.1406 36.2031 35.1406 37.0703V37.8555C35.1406 38.7148 35.2148 39.4805 35.3633 40.1523C35.5195 40.8164 35.7461 41.3789 36.043 41.8398C36.3398 42.3008 36.7031 42.6484 37.1328 42.8828C37.5703 43.1172 38.0781 43.2344 38.6562 43.2344C39.2109 43.2344 39.7031 43.1172 40.1328 42.8828C40.5703 42.6484 40.9375 42.3008 41.2344 41.8398C41.5312 41.3789 41.7539 40.8164 41.9023 40.1523C42.0586 39.4805 42.1367 38.7148 42.1367 37.8555ZM52.3672 43.8672L55.7656 28.9375H57.7227L58.4961 30.7891L54.875 46H52.7305L52.3672 43.8672ZM51.043 28.9375L53.8906 43.9375L53.3984 46H50.9609L47.2578 28.9375H51.043ZM60.9219 43.8555L63.7344 28.9375H67.5078L63.8047 46H61.3906L60.9219 43.8555ZM59 28.9375L62.4453 43.9492L62.0469 46H59.9141L56.2344 30.7773L57.043 28.9375H59ZM80.8672 43.0469V46H71.7852V43.0469H80.8672ZM73.0859 28.9375V46H69.2656V28.9375H73.0859ZM79.6953 35.8047V38.6641H71.7852V35.8047H79.6953ZM80.8789 28.9375V31.9023H71.7852V28.9375H80.8789ZM82.7422 28.9375H89.293C90.5977 28.9375 91.7266 29.1328 92.6797 29.5234C93.6406 29.9141 94.3789 30.4922 94.8945 31.2578C95.4102 32.0234 95.668 32.9688 95.668 34.0938C95.668 35.0312 95.5156 35.8281 95.2109 36.4844C94.9062 37.1406 94.4766 37.6836 93.9219 38.1133C93.375 38.543 92.7344 38.8906 92 39.1562L90.7578 39.8359H85.1797L85.1562 36.8711H89.3047C89.875 36.8711 90.3477 36.7695 90.7227 36.5664C91.0977 36.3633 91.3789 36.0781 91.5664 35.7109C91.7617 35.3359 91.8594 34.8984 91.8594 34.3984C91.8594 33.8828 91.7617 33.4375 91.5664 33.0625C91.3711 32.6875 91.082 32.4023 90.6992 32.207C90.3242 32.0039 89.8555 31.9023 89.293 31.9023H86.5625V46H82.7422V28.9375ZM92.1875 46L88.3555 38.418L92.3867 38.4062L96.2773 45.8242V46H92.1875ZM107.105 41.5C107.105 41.2109 107.062 40.9531 106.977 40.7266C106.891 40.4922 106.734 40.2773 106.508 40.082C106.281 39.8867 105.961 39.6914 105.547 39.4961C105.133 39.293 104.59 39.0859 103.918 38.875C103.152 38.625 102.422 38.3438 101.727 38.0312C101.039 37.7109 100.426 37.3398 99.8867 36.918C99.3477 36.4961 98.9219 36.0039 98.6094 35.4414C98.3047 34.8789 98.1523 34.2227 98.1523 33.4727C98.1523 32.7461 98.3125 32.0898 98.6328 31.5039C98.9531 30.918 99.4023 30.418 99.9805 30.0039C100.559 29.582 101.238 29.2617 102.02 29.043C102.801 28.8164 103.66 28.7031 104.598 28.7031C105.848 28.7031 106.945 28.9258 107.891 29.3711C108.844 29.8086 109.586 30.4258 110.117 31.2227C110.648 32.0117 110.914 32.9297 110.914 33.9766H107.117C107.117 33.5156 107.02 33.1094 106.824 32.7578C106.637 32.3984 106.348 32.1172 105.957 31.9141C105.574 31.7109 105.094 31.6094 104.516 31.6094C103.953 31.6094 103.48 31.6953 103.098 31.8672C102.723 32.0312 102.438 32.2578 102.242 32.5469C102.055 32.8359 101.961 33.1523 101.961 33.4961C101.961 33.7695 102.031 34.0195 102.172 34.2461C102.32 34.4648 102.531 34.6719 102.805 34.8672C103.086 35.0547 103.43 35.2344 103.836 35.4062C104.242 35.5781 104.707 35.7422 105.23 35.8984C106.145 36.1875 106.953 36.5078 107.656 36.8594C108.367 37.2109 108.965 37.6094 109.449 38.0547C109.934 38.5 110.297 39.0039 110.539 39.5664C110.789 40.1289 110.914 40.7656 110.914 41.4766C110.914 42.2344 110.766 42.9062 110.469 43.4922C110.18 44.0781 109.758 44.5781 109.203 44.9922C108.656 45.3984 108 45.707 107.234 45.918C106.469 46.1289 105.613 46.2344 104.668 46.2344C103.809 46.2344 102.961 46.125 102.125 45.9062C101.289 45.6797 100.531 45.3359 99.8516 44.875C99.1797 44.4141 98.6406 43.8281 98.2344 43.1172C97.8359 42.3984 97.6367 41.5469 97.6367 40.5625H101.457C101.457 41.0781 101.531 41.5156 101.68 41.875C101.828 42.2266 102.039 42.5117 102.312 42.7305C102.594 42.9492 102.934 43.1055 103.332 43.1992C103.73 43.293 104.176 43.3398 104.668 43.3398C105.238 43.3398 105.699 43.2617 106.051 43.1055C106.41 42.9414 106.676 42.7188 106.848 42.4375C107.02 42.1562 107.105 41.8438 107.105 41.5Z" fill="black"/>
</svg>
